<svg xmlns="http://www.w3.org/2000/svg" enable-background="new 0 0 68 68" viewBox="0 0 68 68"><path d="M65.8,6c0-2.8-2.2-5-5-5C50.2,1,20.3,1,9.7,1c-2.8,0-5,2.2-5,5v4.9H3.2c-0.6,0-1,0.4-1,1s0.4,1,1,1h1.5v12.8H3.2
		c-0.6,0-1,0.4-1,1s0.4,1,1,1h1.5v12.8H3.2c-0.6,0-1,0.4-1,1s0.4,1,1,1h1.5v12.8H3.2c-0.6,0-1,0.4-1,1s0.4,1,1,1h1.5V62
		c0,2.8,2.2,5,5,5c10.7,0,40.5,0,51.2,0c2.8,0,5-2.2,5-5C65.8,61.5,65.8,51.2,65.8,6z M55.8,62c0,1.7-1.3,3-3,3H9.7
		c-1.7,0-3-1.3-3-3v-4.9h1.9V58c0,1.1,0.9,2,2,2h3.7c1.1,0,2-0.9,2-2v-3.7c0-1.1-0.9-2-2-2h-3.7c-1.1,0-2,0.9-2,2v0.8H6.7V42.4h1.9
		v0.8c0,1.1,0.9,2,2,2h3.7c1.1,0,2-0.9,2-2v-3.7c0-1.1-0.9-2-2-2h-3.7c-1.1,0-2,0.9-2,2v0.8H6.7V27.6h1.9v0.8c0,1.1,0.9,2,2,2h3.7
		c1.1,0,2-0.9,2-2v-3.7c0-1.1-0.9-2-2-2h-3.7c-1.1,0-2,0.9-2,2v0.8H6.7V12.9h1.9v0.8c0,1.1,0.9,2,2,2h3.7c1.1,0,2-0.9,2-2V10
		c0-1.1-0.9-2-2-2h-3.7c-1.1,0-2,0.9-2,2v0.8H6.7V6c0-1.7,1.3-3,3-3h43.2c1.7,0,3,1.3,3,3V62z M10.6,58l0-3.7l3.7,0V58c0,0,0,0,0,0
		L10.6,58z M10.6,43.2l0-3.7l3.7,0v3.7c0,0,0,0,0,0L10.6,43.2z M10.6,28.5l0-3.7l3.7,0v3.7c0,0,0,0,0,0L10.6,28.5z M10.6,13.7l0-3.7
		l3.7,0v3.7c0,0,0,0,0,0L10.6,13.7z M63.8,62c0,1.7-1.3,3-3,3h-4c0.6-0.8,1-1.9,1-3v-5.7h6V62z M63.8,54.3h-6v-8.6h3
		c1.7,0,3,1.3,3,3V54.3z M63.8,44.7c-0.8-0.6-1.9-1-3-1h-3v-8.5h3c1.6,0,3,1.3,3,3V44.7z M63.8,34.2c-0.1-0.1-1.3-1-3-1h-3v-8.8h3
		c1.7,0,3,1.3,3,3V34.2z M63.8,23.4c-0.7-0.4-1.5-1-3-1h-3v-8.8h3c1.6,0,3,1.3,3,3V23.4z M63.8,12.7c-0.8-0.6-1.9-1-3-1h-3V6
		c0-1.1-0.4-2.2-1-3h4c1.7,0,3,1.3,3,3V12.7z"/><path d="M41.9 34.1c-3.1-1.5-2-4.9.7-7 .1-.1.2-.1.2-.2 1.4-2 .2-3.6.2-4.4-.1-.3.7-5.3-3.5-7.3-.9-.4-1.7-.6-2.7-.7l-1.4 0c-3.8.2-6.2 3.2-6.2 6.5v1.4c0 .8-1.2 2.3.2 4.4.1.1.1.2.2.2 2.7 2 3.8 5.5.8 7l-7.2 3.2c-1.9.9-3.4 2.6-3.9 4.7-.1.6 0 1.3.4 1.8.4.5 1 .8 1.6.8H51c.6 0 1.2-.3 1.6-.8.4-.5.5-1.1.4-1.8C51.8 37 46.7 36.8 41.9 34.1zM51 42.6H21.4l0-.1c.3-1.5 1.4-2.7 2.7-3.3l7.2-3.2c3.6-1.7 4.5-6.4-.2-10.3-.4-.6-.2-1.2-.1-1.6.9-2.1-.7-5.4 2.7-7 1.5-.7 2.4-.4 3.2-.5.6 0 1.3.2 1.9.5 3 1.4 2.3 5 2.4 5.5 0 1.5.9 2 .2 3.1-4.8 3.9-3.8 8.6-.2 10.3C46.5 38.8 50.2 38.8 51 42.6 51 42.6 51 42.6 51 42.6zM52 51.4H20.3c-.6 0-1 .4-1 1s.4 1 1 1H52c.6 0 1-.4 1-1S52.6 51.4 52 51.4zM23 9c.6 0 1-.4 1-1s-.4-1-1-1h-3c-.6 0-1 .4-1 1s.4 1 1 1H23zM26.8 9h4c.6 0 1-.4 1-1s-.4-1-1-1h-4c-.6 0-1 .4-1 1S26.2 9 26.8 9z"/></svg>